<?xml version="1.0" encoding="UTF-8"?>
<svg version="1.1" xmlns="http://www.w3.org/2000/svg" width="500" height="500">
<path d="M0 0 C165 0 330 0 500 0 C500 165 500 330 500 500 C335 500 170 500 0 500 C0 335 0 170 0 0 Z " fill="#100D28" transform="translate(0,0)"/>
<path d="M0 0 C0.98484375 0.556875 1.9696875 1.11375 2.984375 1.6875 C9.09672579 5.36197677 14.42623148 9.72947295 19.67456055 14.5324707 C21.05369298 15.76242687 22.52166614 16.89124961 24 18 C27.29178645 17.19992293 27.29178645 17.19992293 29.5 13.9375 C36.21180874 5.86675714 45.32249285 0.7433236 55 -3 C55.9384375 -3.36609375 56.876875 -3.7321875 57.84375 -4.109375 C66.53868754 -6.56289698 77.14809359 -6.00827657 85.47265625 -2.453125 C95.72517739 3.4416785 103.02059715 12.6128634 106.45703125 23.859375 C109.56996442 36.13194607 109.06373433 48.48610472 102.4921875 59.53515625 C98.53765741 65.04390863 93.92916737 68.76590871 88 72 C87.38640625 72.3403125 86.7728125 72.680625 86.140625 73.03125 C75.81816746 77.79546117 62.4174007 75.20812686 52 72 C44.43661275 68.89965142 37.66618848 64.69067077 31 60 C30.84289551 60.5249707 30.68579102 61.04994141 30.52392578 61.59082031 C28.52565164 67.94480511 25.86732791 73.80686103 22.875 79.75 C22.38854004 80.71647461 21.90208008 81.68294922 21.40087891 82.67871094 C10.57438403 103.7940897 -2.34622256 118.28093509 -25 126 C-40.03765461 130.33183466 -57.20261282 129.0781658 -71.35546875 122.421875 C-74.34484368 120.7396412 -77.17246045 118.94030573 -80 117 C-81.16402344 116.24976563 -81.16402344 116.24976563 -82.3515625 115.484375 C-94.00598856 107.33039493 -101.34192856 95.18293937 -106 82 C-106.40061646 80.99815674 -106.40061646 80.99815674 -106.80932617 79.97607422 C-109.12759475 73.83734826 -109.4321625 68.27187707 -109.3125 61.75 C-109.29449341 60.22765747 -109.29449341 60.22765747 -109.27612305 58.67456055 C-108.87488106 37.31994984 -102.19698188 20.3701691 -86.83666992 5.23413086 C-62.06055382 -17.87159919 -27.91306517 -16.06642273 0 0 Z " fill="#5109AF" transform="translate(250,155)"/>
<path d="M0 0 C0.98484375 0.556875 1.9696875 1.11375 2.984375 1.6875 C9.09672579 5.36197677 14.42623148 9.72947295 19.67456055 14.5324707 C21.05369298 15.76242687 22.52166614 16.89124961 24 18 C27.29178645 17.19992293 27.29178645 17.19992293 29.5 13.9375 C36.21180874 5.86675714 45.32249285 0.7433236 55 -3 C55.9384375 -3.36609375 56.876875 -3.7321875 57.84375 -4.109375 C66.53868754 -6.56289698 77.14809359 -6.00827657 85.47265625 -2.453125 C95.72517739 3.4416785 103.02059715 12.6128634 106.45703125 23.859375 C107.67254692 28.65147996 108.16076831 33.03859852 108.1875 38 C108.20167969 39.19625 108.21585938 40.3925 108.23046875 41.625 C108.00840258 44.87695208 107.39787037 47.08270531 106 50 C104.11303935 47.16955903 104.00977907 45.85820346 104.25 42.375 C104.36836614 36.60734085 101.55337626 32.36328337 98 28 C89.35657247 20.26389359 79.91014446 19.45124224 68.77734375 19.76171875 C59.55052749 20.34376197 54.33589166 24.39025841 48 31 C46.46523061 32.95446504 45.24178008 34.84038248 44 37 C45.37259316 40.29142237 46.70260309 41.79419953 49.75 43.625 C50.40484375 44.02976563 51.0596875 44.43453125 51.734375 44.8515625 C56.85551676 47.4474516 61.33403345 48.29379989 67.0625 48.3125 C68.24972656 48.32925781 69.43695313 48.34601563 70.66015625 48.36328125 C74.28093463 47.9694422 76.11460131 47.17697643 79 45 C82.34111419 40.16114496 82.53700033 35.67981123 82 30 C81.69600819 28.65967248 81.37123713 27.32328073 81 26 C83.64 26.33 86.28 26.66 89 27 C91.5838768 36.68953799 90.21246926 47.19284403 85.375 55.9375 C81.01846592 59.72080591 76.27231306 61.71079652 70.5625 62.4375 C53.37594922 60.32687096 42.81216139 49.35317169 30.91210938 37.83984375 C27.0401317 34.11420231 23.04651897 30.53404864 19 27 C18.071875 26.18144531 17.14375 25.36289063 16.1875 24.51953125 C-3.46343221 7.60642423 -25.77761928 -2.72917607 -51.87744141 -1.18017578 C-65.21057296 -0.04837786 -78.03778444 6.02091768 -87 16 C-91.90169766 22.48696893 -95.32579155 29.34279444 -98 37 C-98.66 37 -99.32 37 -100 37 C-100.58251532 57.23701364 -98.2935596 75.71527009 -84.5625 91.5625 C-83.0724911 93.07271241 -81.55291612 94.55455212 -80 96 C-79.00613281 96.94746094 -79.00613281 96.94746094 -77.9921875 97.9140625 C-65.30358563 108.86582153 -48.4630902 113.07036957 -32.07714844 112.19970703 C-24.07768093 111.43059979 -17.03240609 108.20980526 -11 103 C-11 102.34 -11 101.68 -11 101 C-11.86882812 101.34933594 -12.73765625 101.69867188 -13.6328125 102.05859375 C-14.78523438 102.51363281 -15.93765625 102.96867187 -17.125 103.4375 C-18.26195312 103.88996094 -19.39890625 104.34242188 -20.5703125 104.80859375 C-25.91020271 106.663567 -30.74589078 107.12504566 -36.375 107.0625 C-37.43460937 107.05347656 -38.49421875 107.04445313 -39.5859375 107.03515625 C-40.78089844 107.01775391 -40.78089844 107.01775391 -42 107 C-39.90695999 104.90695999 -38.88422838 104.47824563 -36.140625 103.58984375 C-18.85182482 97.76255998 -2.13202387 89.39500476 7.1875 72.8125 C7.8123709 71.55171807 8.4258599 70.28467812 9 69 C5.50263869 70.39894453 4.50590987 71.60542818 3 75 C-3.60853426 84.10550885 -13.07228971 91.07293474 -24 94 C-26.77069312 94.27437058 -29.20905873 94.20673639 -32 94 C-29.21613301 92.14408867 -27.7076262 91.58199722 -24.5625 90.8125 C-10.4585833 86.68001129 -1.03631139 77.4516772 7.375 65.875 C7.79217285 65.30128662 8.2093457 64.72757324 8.63916016 64.13647461 C11.35872553 60.25795941 13.26180587 56.40716318 15 52 C21.1304799 56.04054357 23.37988276 60.89054434 25 68 C25.85788449 74.79708478 23.28450649 79.32488407 20.125 85.125 C19.6290332 86.05135254 19.13306641 86.97770508 18.62207031 87.93212891 C14.41677287 95.6035218 9.7324291 102.39178312 4 109 C3.443125 109.6909375 2.88625 110.381875 2.3125 111.09375 C-7.24538923 121.98974372 -25.56296414 127.29416942 -39.5234375 128.23828125 C-54.67973446 128.53033971 -67.28118326 125.72786838 -80 117 C-81.16402344 116.24976563 -81.16402344 116.24976563 -82.3515625 115.484375 C-94.00598856 107.33039493 -101.34192856 95.18293937 -106 82 C-106.40061646 80.99815674 -106.40061646 80.99815674 -106.80932617 79.97607422 C-109.12759475 73.83734826 -109.4321625 68.27187707 -109.3125 61.75 C-109.29449341 60.22765747 -109.29449341 60.22765747 -109.27612305 58.67456055 C-108.87488106 37.31994984 -102.19698188 20.3701691 -86.83666992 5.23413086 C-62.06055382 -17.87159919 -27.91306517 -16.06642273 0 0 Z " fill="#AD35E8" transform="translate(250,155)"/>
<path d="M0 0 C3.13743545 2.51106854 6.23172911 5.07159063 9.30126953 7.66503906 C-9.68131113 47.49225189 -9.68131113 47.49225189 -29.94873047 55.47753906 C-41.16285705 59.02867915 -50.87611752 58.30108673 -61.69873047 53.66503906 C-64.55029297 52.15332031 -64.55029297 52.15332031 -66.69873047 50.66503906 C-66.69873047 50.00503906 -66.69873047 49.34503906 -66.69873047 48.66503906 C-67.29943359 48.56964844 -67.90013672 48.47425781 -68.51904297 48.37597656 C-72.62859122 47.03558627 -74.40508472 43.13635133 -76.69873047 39.66503906 C-77.27751953 38.85679687 -77.85630859 38.04855469 -78.45263672 37.21582031 C-84.0744646 28.48959559 -83.06005659 20.70503988 -81.15185547 10.83691406 C-78.33932366 -0.07022149 -72.16241247 -8.44601934 -62.79638672 -14.58105469 C-40.31837564 -27.13012835 -17.78897512 -13.9796085 0 0 Z " fill="#100C2A" transform="translate(251.69873046875,190.3349609375)"/>
<path d="M0 0 C10.25252114 5.8948035 17.5479409 15.0659884 20.984375 26.3125 C22.19989067 31.10460496 22.68811206 35.49172352 22.71484375 40.453125 C22.72902344 41.649375 22.74320312 42.845625 22.7578125 44.078125 C22.53574633 47.33007708 21.92521412 49.53583031 20.52734375 52.453125 C18.6403831 49.62268403 18.53712282 48.31132846 18.77734375 44.828125 C18.89570989 39.06046585 16.08072001 34.81640837 12.52734375 30.453125 C3.88391622 22.71701859 -5.56251179 21.90436724 -16.6953125 22.21484375 C-25.92957211 22.79735651 -31.13104161 26.84627172 -37.47265625 33.453125 C-39.30802346 35.72385839 -40.88553243 37.99564296 -42.47265625 40.453125 C-49.1808668 35.08655656 -54.7607177 28.83644873 -60.47265625 22.453125 C-48.18811939 3.43023458 -22.01915189 -9.40366788 0 0 Z " fill="#9207E5" transform="translate(335.47265625,152.546875)"/>
<path d="M0 0 C2.31 0.66 4.62 1.32 7 2 C5.64918666 14.37637083 -6.30631054 26.43862627 -15.609375 34.16796875 C-21.9766191 38.80498347 -29.06456628 42.97607307 -37 44 C-24.85275744 43.53279836 -15.12080847 36.63125928 -7 28 C-5.6827311 26.26416872 -5.6827311 26.26416872 -4.6875 24.625 C-2.80321287 21.69388669 -1.08457945 20.54228973 2 19 C-2.05806951 31.98582244 -15.41265069 42.9739743 -26.98535156 49.04443359 C-33.75228787 52.25405413 -40.91416693 54.60563191 -48 57 C-42.45425134 57.12960882 -37.3303904 57.16656277 -31.9375 55.6875 C-30.94105469 55.41679687 -29.94460937 55.14609375 -28.91796875 54.8671875 C-24.90659613 53.67505266 -20.94994831 52.38248191 -17 51 C-19.72952381 56.97083334 -24.40511501 59.35942521 -30.1484375 61.98046875 C-45.00092548 67.37906933 -60.17447713 63.72933196 -74.09375 57.6484375 C-81.03008386 54.16078648 -86.51920737 49.45169107 -92 44 C-92.55300781 43.48179687 -93.10601562 42.96359375 -93.67578125 42.4296875 C-97.49509399 38.49713368 -99.84639704 33.78049714 -102.3125 28.9375 C-102.6626416 28.25228271 -103.0127832 27.56706543 -103.37353516 26.86108398 C-105.30901777 22.90847901 -106.52296484 19.43158749 -107 15 C-104.43079331 17.30780485 -103.07321491 19.63220154 -101.5 22.6875 C-95.6530042 32.5669067 -85.53539673 37.36613321 -75 41 C-73.9584375 41.36738281 -72.916875 41.73476562 -71.84375 42.11328125 C-66.7658106 43.28471646 -61.94386837 43.32942917 -56.75 43.3125 C-55.77675781 43.32861328 -54.80351562 43.34472656 -53.80078125 43.36132812 C-41.06305048 43.36978611 -30.00942318 39.70541032 -20.5 31.0625 C-12.12035661 22.12948394 -5.96569302 10.60787137 0 0 Z " fill="#6008E7" transform="translate(258,204)"/>
<path d="M0 0 C6.6653009 -0.43001941 12.63643921 0.34367817 19.125 1.75 C19.8763623 1.90694336 20.62772461 2.06388672 21.40185547 2.22558594 C26.04147905 3.28369226 30.0347863 4.81430587 34.22631836 7.06982422 C36.23653834 8.16261288 36.23653834 8.16261288 39.4375 9.375 C54.11475986 16.06989046 67.16179112 28.93044665 77.5 41.0625 C84.82212161 49.4955642 92.06333626 56.24454076 103.5703125 57.33984375 C111.8083512 57.61272353 111.8083512 57.61272353 119 54 C122.34111419 49.16114496 122.53700033 44.67981123 122 39 C121.69600819 37.65967248 121.37123713 36.32328073 121 35 C123.64 35.33 126.28 35.66 129 36 C131.5838768 45.68953799 130.21246926 56.19284403 125.375 64.9375 C121.01846592 68.72080591 116.27231306 70.71079652 110.5625 71.4375 C93.37594922 69.32687096 82.81216139 58.35317169 70.91210938 46.83984375 C67.0401317 43.11420231 63.04651897 39.53404864 59 36 C58.071875 35.18144531 57.14375 34.36289063 56.1875 33.51953125 C50.00284422 28.19653975 43.74641098 23.7739768 36.71484375 19.69140625 C34 18 34 18 32.4453125 16.43359375 C26.97359219 11.00623874 17.26234697 8.93767609 10 7 C10 6.01 10 5.02 10 4 C6.7 3.34 3.4 2.68 0 2 C0 1.34 0 0.68 0 0 Z " fill="#E032E7" transform="translate(210,146)"/>
<path d="M0 0 C4.57655535 5.09959024 6.96315447 9.2645478 6.64453125 16.15625 C5.72183757 20.76183214 3.34290579 24.96703427 -0.5703125 27.63671875 C-8.17814931 30.35380332 -17.41451771 29.0344241 -24.61328125 25.7265625 C-28.10639702 23.67908789 -30.88891624 21.23397142 -33.8125 18.4375 C-31.37032073 11.21433487 -25.56768325 4.74168798 -19 0.875 C-12.94899172 -1.85388609 -6.04471303 -3.3581739 0 0 Z " fill="#120D2A" transform="translate(326.8125,175.5625)"/>
<path d="M0 0 C3.47629131 -0.55772141 6.54197864 -0.74404942 10 0 C12.82555774 2.56841861 14.39366782 5.62845839 16.125 9 C16.60453125 9.85851562 17.0840625 10.71703125 17.578125 11.6015625 C18.75272997 13.71585144 19.88106486 15.85572886 21 18 C21.33 14.04 21.66 10.08 22 6 C21.01 6 20.02 6 19 6 C19 4.02 19 2.04 19 0 C22.96 0 26.92 0 31 0 C31 1.98 31 3.96 31 6 C30.01 6 29.02 6 28 6 C28 13.92 28 21.84 28 30 C21 30 21 30 19.19555664 28.34765625 C18.55928345 27.21650391 18.55928345 27.21650391 17.91015625 26.0625 C17.19956055 24.84433594 17.19956055 24.84433594 16.47460938 23.6015625 C16.00861328 22.74304688 15.54261719 21.88453125 15.0625 21 C14.56943359 20.14148438 14.07636719 19.28296875 13.56835938 18.3984375 C12.35548728 16.27885519 11.17459384 14.14103181 10 12 C9.67 16.29 9.34 20.58 9 25 C9.99 25 10.98 25 12 25 C12 26.65 12 28.3 12 30 C8.37 30 4.74 30 1 30 C1 28.35 1 26.7 1 25 C1.66 25 2.32 25 3 25 C3 18.73 3 12.46 3 6 C2.01 6 1.02 6 0 6 C0 4.02 0 2.04 0 0 Z " fill="#F6F6F7" transform="translate(236,295)"/>
<path d="M0 0 C7.92 0 15.84 0 24 0 C24 3.3 24 6.6 24 10 C22.02 10 20.04 10 18 10 C18 8.68 18 7.36 18 6 C15.36 6 12.72 6 10 6 C10 7.98 10 9.96 10 12 C11.98 12 13.96 12 16 12 C16 13.98 16 15.96 16 18 C14.02 18 12.04 18 10 18 C10 19.98 10 21.96 10 24 C12.31 24 14.62 24 17 24 C17 22.35 17 20.7 17 19 C19.31 19 21.62 19 24 19 C24 22.63 24 26.26 24 30 C16.08 30 8.16 30 0 30 C0 28.02 0 26.04 0 24 C0.99 24 1.98 24 3 24 C3 18.06 3 12.12 3 6 C2.01 6 1.02 6 0 6 C0 4.02 0 2.04 0 0 Z " fill="#EFEFF1" transform="translate(197,295)"/>
<path d="M0 0 C7.92 0 15.84 0 24 0 C24 3.3 24 6.6 24 10 C22.02 10 20.04 10 18 10 C18 8.68 18 7.36 18 6 C15.36 6 12.72 6 10 6 C10 7.98 10 9.96 10 12 C11.98 12 13.96 12 16 12 C16 13.98 16 15.96 16 18 C14.02 18 12.04 18 10 18 C10 19.98 10 21.96 10 24 C12.31 24 14.62 24 17 24 C17 22.35 17 20.7 17 19 C19.31 19 21.62 19 24 19 C24 22.63 24 26.26 24 30 C16.08 30 8.16 30 0 30 C0 28.02 0 26.04 0 24 C0.99 24 1.98 24 3 24 C3 18.06 3 12.12 3 6 C2.01 6 1.02 6 0 6 C0 4.02 0 2.04 0 0 Z " fill="#F1F0F2" transform="translate(116,295)"/>
<path d="M0 0 C3.96 0 7.92 0 12 0 C12 1.98 12 3.96 12 6 C11.01 6 10.02 6 9 6 C9.14058476 8.45873768 9.28722999 10.91685175 9.4375 13.375 C9.47681641 14.07367188 9.51613281 14.77234375 9.55664062 15.4921875 C9.74280134 19.37360492 9.74280134 19.37360492 11 23 C12.99954746 23.04254356 15.00041636 23.04080783 17 23 C19.05922402 20.94077598 18.41427579 16.78291876 18.5625 13.9375 C18.60568359 13.17888672 18.64886719 12.42027344 18.69335938 11.63867188 C18.79973633 9.75934562 18.90039934 7.87969756 19 6 C18.01 6 17.02 6 16 6 C16 4.02 16 2.04 16 0 C19.96 0 23.92 0 28 0 C28 1.98 28 3.96 28 6 C27.34 6 26.68 6 26 6 C26.04640625 7.00160156 26.0928125 8.00320313 26.140625 9.03515625 C26.57455726 22.37982966 26.57455726 22.37982966 22 28 C17.76668568 30.82220955 13.97131405 30.78619823 9 30 C5.61981101 27.46485825 3.49923703 24.92720497 2 21 C1.86041143 18.37573495 1.81068631 15.86707253 1.875 13.25 C1.88402344 12.55261719 1.89304687 11.85523438 1.90234375 11.13671875 C1.92580112 9.42433042 1.96166896 7.71211996 2 6 C1.34 6 0.68 6 0 6 C0 4.02 0 2.04 0 0 Z " fill="#F0EFF1" transform="translate(321,295)"/>
<path d="M0 0 C3.06426479 1.24067963 5.63585672 2.67195051 8 5 C8.5 8.3125 8.5 8.3125 8 11 C5.69 11 3.38 11 1 11 C0.67 10.01 0.34 9.02 0 8 C-1.65 7.67 -3.3 7.34 -5 7 C-5 8.32 -5 9.64 -5 11 C-4.31292969 11.24234375 -3.62585938 11.4846875 -2.91796875 11.734375 C-2.01691406 12.06953125 -1.11585938 12.4046875 -0.1875 12.75 C0.70582031 13.07484375 1.59914063 13.3996875 2.51953125 13.734375 C5.28935407 15.14763892 6.43320321 16.33949766 8 19 C8.57073387 22.83207029 8.34375398 24.45981518 6.25 27.75 C3.56613169 30.43386831 1.60589225 31.94155331 -2.25390625 32.08203125 C-3.01574219 31.99308594 -3.77757812 31.90414063 -4.5625 31.8125 C-5.32691406 31.73644531 -6.09132813 31.66039062 -6.87890625 31.58203125 C-9.38834431 30.89343775 -10.41521848 30.04046949 -12 28 C-12 27.34 -12 26.68 -12 26 C-12.99 26 -13.98 26 -15 26 C-15 24.02 -15 22.04 -15 20 C-12.36 20 -9.72 20 -7 20 C-6.67 21.32 -6.34 22.64 -6 24 C-4.02 24.33 -2.04 24.66 0 25 C-0.16921734 23.04717792 -0.16921734 23.04717792 -1 21 C-2.94260623 19.78923992 -2.94260623 19.78923992 -5.3125 19 C-11.82109702 16.31572193 -11.82109702 16.31572193 -14 13 C-14.5625 9.5625 -14.5625 9.5625 -14 6 C-9.64142945 0.72383565 -6.81892281 -0.65989576 0 0 Z " fill="#F1F1F2" transform="translate(378,294)"/>
<path d="M0 0 C-3 1 -3 1 -4.73095703 0.29956055 C-5.35856934 -0.06355225 -5.98618164 -0.42666504 -6.6328125 -0.80078125 C-10.94678051 -3.09177614 -15.11007179 -4.21673401 -19.875 -5.1875 C-20.65858887 -5.35475586 -21.44217773 -5.52201172 -22.24951172 -5.69433594 C-27.81988773 -6.84921216 -33.31770897 -7.63340058 -39 -8 C-39 -7.34 -39 -6.68 -39 -6 C-37.948125 -6.061875 -36.89625 -6.12375 -35.8125 -6.1875 C-31.84228819 -5.99224368 -30.12172005 -5.36493943 -27 -3 C-27 -2.67 -27 -2.34 -27 -2 C-27.72477539 -2.01571045 -28.44955078 -2.0314209 -29.19628906 -2.04760742 C-32.54744349 -2.11078143 -35.89847197 -2.14924886 -39.25 -2.1875 C-40.38953125 -2.21263672 -41.5290625 -2.23777344 -42.703125 -2.26367188 C-53.55355789 -2.35614716 -62.99774739 -0.06871293 -73 4 C-73.62777344 4.2475 -74.25554687 4.495 -74.90234375 4.75 C-78.32759446 6.14037661 -81.09347641 7.73937054 -84 10 C-84.66 10 -85.32 10 -86 10 C-86.23460937 10.56203125 -86.46921875 11.1240625 -86.7109375 11.703125 C-88.30663 14.54635891 -90.28924543 16.48098127 -92.625 18.75 C-93.44226563 19.54921875 -94.25953125 20.3484375 -95.1015625 21.171875 C-95.72804687 21.77515625 -96.35453125 22.3784375 -97 23 C-97 16.65794515 -90.62014618 11.41249978 -86.5 7 C-62.11121953 -16.69715833 -28.41072165 -14.91772405 0 0 Z " fill="#250DE7" transform="translate(249,154)"/>
<path d="M0 0 C4.29 0 8.58 0 13 0 C13 1.98 13 3.96 13 6 C12.01 6.495 12.01 6.495 11 7 C11.2165625 7.60328125 11.433125 8.2065625 11.65625 8.828125 C11.9346875 9.62734375 12.213125 10.4265625 12.5 11.25 C12.7784375 12.03890625 13.056875 12.8278125 13.34375 13.640625 C14 16 14 16 14 20 C14.66 20 15.32 20 16 20 C16.12117188 19.40832031 16.24234375 18.81664062 16.3671875 18.20703125 C17.26744643 13.96196415 18.20456621 9.97560339 20 6 C19.01 6 18.02 6 17 6 C17 4.02 17 2.04 17 0 C21.29 0 25.58 0 30 0 C30 1.98 30 3.96 30 6 C29.01 6.33 28.02 6.66 27 7 C25.83332559 9.29354625 25.83332559 9.29354625 24.95703125 12.12890625 C24.43012695 13.68061523 24.43012695 13.68061523 23.89257812 15.26367188 C23.53615234 16.35228516 23.17972656 17.44089844 22.8125 18.5625 C22.26045898 20.2012207 22.26045898 20.2012207 21.69726562 21.87304688 C20.78751647 24.57866448 19.88899504 27.28750642 19 30 C16.36 30 13.72 30 11 30 C7.69642306 22.06889353 5.14554614 14.5317541 4 6 C2.68 6 1.36 6 0 6 C0 4.02 0 2.04 0 0 Z " fill="#F1F1F3" transform="translate(153,295)"/>
<path d="M0 0 C7.59877098 4.36225741 14.70997029 10.93798988 17.53125 19.453125 C17.03625 20.938125 17.03625 20.938125 16.53125 22.453125 C15.87125 21.40125 15.21125 20.349375 14.53125 19.265625 C10.52010523 13.68391933 4.83595466 10.13207199 -1.9375 8.734375 C-11.01826212 7.72540143 -20.14587948 7.29168974 -28.46875 11.453125 C-29.29375 11.845 -30.11875 12.236875 -30.96875 12.640625 C-31.46375 12.90875 -31.95875 13.176875 -32.46875 13.453125 C-33.91797865 9.2371871 -33.08155832 6.38202131 -31.74609375 2.3203125 C-25.75834468 -6.43242162 -8.44390351 -3.61154909 0 0 Z " fill="#F432E5" transform="translate(335.46875,166.546875)"/>
<path d="M0 0 C8.91 0 17.82 0 27 0 C27 2.97 27 5.94 27 9 C24.69 9 22.38 9 20 9 C20 8.01 20 7.02 20 6 C19.01 6 18.02 6 17 6 C17 11.94 17 17.88 17 24 C17.99 24 18.98 24 20 24 C20 25.98 20 27.96 20 30 C15.71 30 11.42 30 7 30 C7 28.35 7 26.7 7 25 C7.99 25 8.98 25 10 25 C10 18.73 10 12.46 10 6 C9.01 6 8.02 6 7 6 C7 7.32 7 8.64 7 10 C4.69 10 2.38 10 0 10 C0 6.7 0 3.4 0 0 Z " fill="#EDEDEF" transform="translate(280,295)"/>
<path d="M0 0 C2.31 0.66 4.62 1.32 7 2 C5.64918666 14.37637083 -6.30631054 26.43862627 -15.609375 34.16796875 C-24.98405241 40.99517947 -33.46287324 44.19554452 -45 44 C-45 43.67 -45 43.34 -45 43 C-44.32195312 42.85304687 -43.64390625 42.70609375 -42.9453125 42.5546875 C-25.00275995 38.23058204 -16.29222975 26.92502973 -7 12 C-4.59258059 8.04242721 -2.27066101 4.0375661 0 0 Z " fill="#090EE8" transform="translate(258,204)"/>
<path d="M0 0 C2.01327331 1.55852079 3.39191771 3.00375992 5 5 C4.07380859 4.70996094 4.07380859 4.70996094 3.12890625 4.4140625 C-11.06194715 0.05096907 -23.67225637 -2.61142856 -37.53125 4.25390625 C-43.60498908 7.6109277 -47.80758523 11.51211887 -52 17 C-52.58136719 17.75539062 -53.16273438 18.51078125 -53.76171875 19.2890625 C-55.19432601 21.17916905 -56.60660588 23.08089307 -58 25 C-59.65 23.35 -61.3 21.7 -63 20 C-54.73929191 9.77471091 -45.27483144 2.74798577 -33 -2 C-32.0615625 -2.36609375 -31.123125 -2.7321875 -30.15625 -3.109375 C-20.41862943 -5.85711942 -8.88005588 -4.89341108 0 0 Z " fill="#100FE3" transform="translate(338,154)"/>
<path d="M0 0 C1.29859684 4.55020154 1.44231403 8.45562364 0 13 C-2.35145053 16.34042749 -5.07145656 19.16261745 -8 22 C-8.58007812 22.58007812 -9.16015625 23.16015625 -9.7578125 23.7578125 C-10.16773438 24.16773438 -10.57765625 24.57765625 -11 25 C-12.20205464 23.93283928 -13.38632333 22.84561663 -14.5625 21.75 C-15.22378906 21.14671875 -15.88507813 20.5434375 -16.56640625 19.921875 C-18 18 -18 18 -18.00390625 16.078125 C-14.57537101 8.98092364 -6.97804477 3.33732576 0 0 Z " fill="#673AEB" transform="translate(303,168)"/>
<path d="M0 0 C-0.66 0.33 -1.32 0.66 -2 1 C-4.0390625 0.14453125 -4.0390625 0.14453125 -6.625 -1.1875 C-22.21891896 -8.43765972 -40.52644426 -11.05220249 -57.234375 -6.03515625 C-71.28813276 -0.77492206 -80.89836113 6.66142958 -88 20 C-89.48330058 23.28695897 -90.81116348 26.59594015 -92 30 C-93.48906223 25.66906737 -92.20121551 23.40248792 -90.29296875 19.4296875 C-86.26817523 11.86648034 -81.36945282 5.73128028 -75 0 C-74.2575 -0.6703125 -73.515 -1.340625 -72.75 -2.03125 C-69.35628184 -4.46084369 -65.97070209 -5.79041754 -62.0625 -7.1875 C-61.37220703 -7.44724609 -60.68191406 -7.70699219 -59.97070312 -7.97460938 C-39.9135783 -15.33205706 -17.74365832 -11.15206171 0 0 Z " fill="#8679E4" transform="translate(244,162)"/>
<path d="M0 0 C1.828125 1.66796875 1.828125 1.66796875 3 3 C2.42636719 2.855625 1.85273438 2.71125 1.26171875 2.5625 C-11.74453658 -0.27953455 -27.78112828 -1.45635028 -39.59375 5.53515625 C-41.78213397 6.96368467 -43.90615884 8.43720551 -46 10 C-43.38912295 3.8575682 -37.40289595 -1.23721436 -31.375 -4 C-20.70278731 -7.23142695 -9.52447161 -5.52481605 0 0 Z " fill="#5B08A0" transform="translate(227,181)"/>
<path d="M0 0 C3.16386882 0.59050258 4.94872853 1.52432546 7.34765625 3.65234375 C7.95287109 4.18150391 8.55808594 4.71066406 9.18164062 5.25585938 C9.80232422 5.81080078 10.42300781 6.36574219 11.0625 6.9375 C12.30217023 8.03132667 13.54301326 9.12382594 14.78515625 10.21484375 C15.33051025 10.70073975 15.87586426 11.18663574 16.43774414 11.68725586 C18.17708956 13.1979368 18.17708956 13.1979368 21 15 C20.34580901 20.06998019 18.1453591 24.41990777 16 29 C15.67 29 15.34 29 15 29 C14.82984375 28.20335937 14.6596875 27.40671875 14.484375 26.5859375 C12.5466852 18.11369808 10.43577848 12.07809262 3 7 C0.3205355 5.75983331 0.3205355 5.75983331 -2 5 C-1.34 3.35 -0.68 1.7 0 0 Z " fill="#4B1E77" transform="translate(260,199)"/>
<path d="M0 0 C8.58860306 -0.56012629 16.44720377 1.64802583 23.171875 7.12890625 C27.46966879 11.52771656 30.73719585 16.45955991 31.375 22.625 C31.25125 23.40875 31.1275 24.1925 31 25 C29.27635949 22.75926734 27.77001277 20.59309952 26.375 18.125 C21.5303712 11.75048842 15.77190965 8.87390776 8.015625 7.55859375 C4.74960413 6.65347556 3.06237775 4.57797219 1 2 C0.67 1.34 0.34 0.68 0 0 Z " fill="#8C098C" transform="translate(324,174)"/>
<path d="M0 0 C1.32 0 2.64 0 4 0 C6.67164887 5.34329773 7.66551742 9.01034321 7 15 C4.46579412 19.6314797 2.06902315 23.31032562 -3 25 C-5.39490986 25.06970052 -7.79167691 25.08448003 -10.1875 25.0625 C-11.45980469 25.05347656 -12.73210937 25.04445312 -14.04296875 25.03515625 C-15.50669922 25.01775391 -15.50669922 25.01775391 -17 25 C-17.33 24.34 -17.66 23.68 -18 23 C-17.26394531 22.96261719 -16.52789062 22.92523438 -15.76953125 22.88671875 C-8.30488833 22.57724273 -8.30488833 22.57724273 -2 19 C1.34111419 14.16114496 1.53700033 9.67981123 1 4 C0.69600819 2.65967248 0.37123713 1.32328073 0 0 Z " fill="#DF04D6" transform="translate(331,181)"/>
<path d="M0 0 C-3 1 -3 1 -4.73095703 0.29956055 C-5.35856934 -0.06355225 -5.98618164 -0.42666504 -6.6328125 -0.80078125 C-10.94678051 -3.09177614 -15.11007179 -4.21673401 -19.875 -5.1875 C-20.65858887 -5.35475586 -21.44217773 -5.52201172 -22.24951172 -5.69433594 C-27.81988773 -6.84921216 -33.31770897 -7.63340058 -39 -8 C-39 -7.34 -39 -6.68 -39 -6 C-44.61 -6 -50.22 -6 -56 -6 C-53 -8 -53 -8 -49 -8 C-49 -8.66 -49 -9.32 -49 -10 C-31.78825846 -13.62352453 -15.12786368 -7.94324406 0 0 Z " fill="#6E0EDD" transform="translate(249,154)"/>
<path d="M0 0 C0.33 0 0.66 0 1 0 C0.62120123 5.58728192 0.34573409 9.08883932 -4 13 C-10.13427389 16.61886564 -15.39862117 18.07244735 -22.48046875 16.421875 C-27.04900909 15.15321092 -31.07829029 13.7451968 -35 11 C-33 10 -33 10 -30.93359375 10.59375 C-30.10988281 10.8928125 -29.28617187 11.191875 -28.4375 11.5 C-21.71246572 13.5997589 -16.28666716 13.18932817 -9.8125 10.4375 C-5.84071547 8.30067992 -3.60816503 5.31137449 -1.12890625 1.609375 C-0.75636719 1.07828125 -0.38382812 0.5471875 0 0 Z " fill="#F904E1" transform="translate(337,200)"/>
<path d="M0 0 C-0.99 0.495 -0.99 0.495 -2 1 C-2.40729228 3.32156597 -2.74438677 5.6568787 -3 8 C-2.01 8.66 -1.02 9.32 0 10 C-1.2375 10.45375 -2.475 10.9075 -3.75 11.375 C-6.59245495 12.4384007 -9.32663046 13.55192483 -12 15 C-13.45308119 10.77285472 -12.73393796 7.80764074 -11.0859375 3.80859375 C-8.59249387 -0.3441559 -4.43730352 -1.87732072 0 0 Z " fill="#B536E8" transform="translate(315,165)"/>
<path d="M0 0 C3.5 0.25 3.5 0.25 5.5 2.25 C5.83015665 5.35347254 6.00531294 7.40781176 4.375 10.125 C1.63083761 11.77149743 -0.3694571 11.64964378 -3.5 11.25 C-5.80163882 7.79754176 -5.84490322 6.30261287 -5.5 2.25 C-3.5 0.25 -3.5 0.25 0 0 Z " fill="#1E1638" transform="translate(371.5,341.75)"/>
<path d="M0 0 C0 4.30346835 -2.05132638 5.92187887 -4.90234375 8.98828125 C-9.50253917 13.40001429 -13.16838644 15.91328744 -19.69921875 16.11328125 C-25.53558695 15.7645854 -31.24335408 15.00807624 -37 14 C-37 13.67 -37 13.34 -37 13 C-36.04480469 12.96261719 -35.08960938 12.92523438 -34.10546875 12.88671875 C-22.84127422 12.3139631 -12.14158218 11.30430341 -3 4 C-1.04591976 1.87860167 -1.04591976 1.87860167 0 0 Z " fill="#8706D8" transform="translate(350,221)"/>
<path d="M0 0 C0.99 0.33 1.98 0.66 3 1 C2.31019599 5.06781485 0.27318105 8.40809041 -1.75 11.9375 C-2.08515625 12.54529297 -2.4203125 13.15308594 -2.765625 13.77929688 C-5.05606271 17.80057672 -7.62750241 20.7839863 -11 24 C-12.13623774 25.41228682 -13.24489265 26.84764341 -14.3125 28.3125 C-14.82425781 29.00988281 -15.33601562 29.70726562 -15.86328125 30.42578125 C-16.42595703 31.20501953 -16.42595703 31.20501953 -17 32 C-17.66 31.67 -18.32 31.34 -19 31 C-18.38253906 30.1028125 -17.76507813 29.205625 -17.12890625 28.28125 C-10.88980057 19.1208944 -5.29535889 9.73373942 0 0 Z " fill="#9006C1" transform="translate(254,197)"/>
<path d="M0 0 C0 5.68162465 -5.0758964 9.96053259 -8.82421875 13.93359375 C-15.3635759 20.08908927 -24.96756829 26.21364642 -34.1875 26.0625 C-36.0746875 26.0315625 -36.0746875 26.0315625 -38 26 C-35.21613301 24.14408867 -33.7076262 23.58199722 -30.5625 22.8125 C-17.6483339 19.02861168 -7.91486616 10.66786308 0 0 Z " fill="#916CF1" transform="translate(256,223)"/>
<path d="M0 0 C1.32 0 2.64 0 4 0 C5.52814822 5.73055582 5.88136486 12.35590541 4 18 C3.34 18 2.68 18 2 18 C1.690625 18.86625 1.690625 18.86625 1.375 19.75 C-0.66022716 23.08037172 -2.47789108 24.26984123 -6 26 C-12.31236744 26.77953935 -18.03655577 26.12033573 -24 24 C-19.52055398 22.50685133 -15.13078373 23.08869783 -10.4453125 23.2578125 C-6.69407106 22.97710736 -4.97196771 22.2434925 -2 20 C1.44173799 16.00014233 2.53016228 13.10324559 2.2734375 7.96875 C1.88364037 5.16221068 1.04940695 2.62351738 0 0 Z " fill="#F469EC" transform="translate(335,182)"/>
<path d="M0 0 C1.16505021 4.66020086 1.47399058 8.38680786 0 13 C-2.0634515 15.42962754 -4.35344322 17.23793217 -7 19 C-6.98839844 18.32453125 -6.97679687 17.6490625 -6.96484375 16.953125 C-6.95582031 16.06109375 -6.94679688 15.1690625 -6.9375 14.25 C-6.92009766 12.92742187 -6.92009766 12.92742187 -6.90234375 11.578125 C-6.92172179 8.73046524 -6.92172179 8.73046524 -8 5 C-4.04 2.525 -4.04 2.525 0 0 Z " fill="#8038EC" transform="translate(303,168)"/>
<path d="M0 0 C13.87562516 3.13425886 25.5450439 10.61010179 36 20 C32.40249375 20 31.04124119 19.04754484 28 17.1875 C27.13375 16.66542969 26.2675 16.14335937 25.375 15.60546875 C23 14 23 14 21.50390625 12.45703125 C15.92029467 7.04745432 6.3349966 4.95705983 -1 3 C-0.67 2.01 -0.34 1.02 0 0 Z " fill="#AA12E4" transform="translate(221,150)"/>
<path d="M0 0 C5.4785981 4.02605913 9.62803792 8.51416618 12 15 C11.67 15.99 11.34 16.98 11 18 C10.34 16.948125 9.68 15.89625 9 14.8125 C5.17897276 9.43475796 -0.20358549 6.85302362 -6 4 C-5.195625 3.525625 -4.39125 3.05125 -3.5625 2.5625 C-1.15246512 1.23099846 -1.15246512 1.23099846 0 0 Z " fill="#CC34E5" transform="translate(341,171)"/>
<path d="M0 0 C7.94796148 -0.66233012 13.97062837 1.25311272 21 5 C22.8515625 6.66796875 22.8515625 6.66796875 24 8 C4.82604895 4.63111888 4.82604895 4.63111888 -1 2 C-0.67 1.34 -0.34 0.68 0 0 Z " fill="#A005D1" transform="translate(206,176)"/>
<path d="M0 0 C4.62 0.99 9.24 1.98 14 3 C14 3.33 14 3.66 14 4 C19.28 4.99 24.56 5.98 30 7 C30 7.33 30 7.66 30 8 C20.52395508 8.42324766 12.60159081 8.63162582 4 4 C4 3.34 4 2.68 4 2 C2.68 1.67 1.36 1.34 0 1 C0 0.67 0 0.34 0 0 Z " fill="#230B8B" transform="translate(300,230)"/>
<path d="M0 0 C-1.07378906 0.51949219 -2.14757812 1.03898438 -3.25390625 1.57421875 C-4.69026565 2.2783165 -6.1264545 2.98276225 -7.5625 3.6875 C-8.26697266 4.02716797 -8.97144531 4.36683594 -9.69726562 4.71679688 C-14.50494097 7.08740177 -18.67701426 9.83447619 -23 13 C-24.66392045 13.67349161 -26.33032028 14.3409159 -28 15 C-29.70294787 16.28667172 -31.37946188 17.61096733 -33 19 C-33 18.01 -33 17.02 -33 16 C-26.42356951 9.68074835 -9.35015424 -3.11671808 0 0 Z " fill="#5B089A" transform="translate(305,150)"/>
<path d="M0 0 C2.33294775 -0.04241723 4.66702567 -0.04092937 7 0 C8 1 8 1 8.0625 3.375 C8.041875 4.24125 8.02125 5.1075 8 6 C8 6.99 8 7.98 8 9 C8 9.66 8 10.32 8 11 C6 11 6 11 3.875 9 C3.25625 8.34 2.6375 7.68 2 7 C2 8.32 2 9.64 2 11 C1.34 11 0.68 11 0 11 C0 7.37 0 3.74 0 0 Z " fill="#7D55A2" transform="translate(402,342)"/>
<path d="M0 0 C16.23049264 -0.98300426 30.11229743 2.27144395 44 11 C43.34 11.33 42.68 11.66 42 12 C40.1015625 11.1796875 40.1015625 11.1796875 37.625 9.875 C26.20233555 4.48012682 12.62780119 1.31859131 0 1 C0 0.67 0 0.34 0 0 Z " fill="#A463E6" transform="translate(200,151)"/>
<path d="M0 0 C0.99 0.66 1.98 1.32 3 2 C1.50934368 7.28505421 -0.65326242 12.60856257 -4 17 C-6.1640625 17.76171875 -6.1640625 17.76171875 -8 18 C-7.57952778 13.51496303 -5.61514521 10.60634876 -3.2109375 6.9375 C-1.82443721 4.71909953 -0.84963231 2.47165764 0 0 Z " fill="#B513E6" transform="translate(265,207)"/>
<path d="M0 0 C1.60294922 0.01353516 1.60294922 0.01353516 3.23828125 0.02734375 C4.04652344 0.03894531 4.85476563 0.05054688 5.6875 0.0625 C5.6875 0.3925 5.6875 0.7225 5.6875 1.0625 C5.03265625 1.07667969 4.3778125 1.09085938 3.703125 1.10546875 C-8.49015722 1.7426883 -17.75662818 6.75710524 -27.3125 14.0625 C-28.64583333 15.0625 -29.97916667 16.0625 -31.3125 17.0625 C-27.7428851 8.90592996 -19.29214027 4.21270056 -11.3125 1.0625 C-7.49713799 0.06530311 -3.93467707 -0.04323821 0 0 Z " fill="#7C73F3" transform="translate(318.3125,152.9375)"/>
<path d="M0 0 C0.66 0.33 1.32 0.66 2 1 C4.3400417 0.71758117 6.67504723 0.38749213 9 0 C8.67 0.99 8.34 1.98 8 3 C6.03125 3.73828125 6.03125 3.73828125 3.5 4.3125 C-2.14375119 5.82509038 -6.35245023 8.53117662 -11 12 C-9.49650623 8.33213607 -7.36271208 6.31089607 -4.375 3.75 C-3.14910156 2.69039062 -3.14910156 2.69039062 -1.8984375 1.609375 C-1.27195313 1.07828125 -0.64546875 0.5471875 0 0 Z " fill="#310B90" transform="translate(192,179)"/>
<path d="M0 0 C3 1 3 1 4.75 4.375 C6 8 6 8 5 11 C2.69 10.34 0.38 9.68 -2 9 C-2 9.66 -2 10.32 -2 11 C-2.66 10.67 -3.32 10.34 -4 10 C-2.68 6.7 -1.36 3.4 0 0 Z " fill="#76509A" transform="translate(192,342)"/>
<path d="M0 0 C3 1 3 1 4.75 4.375 C6 8 6 8 5 11 C2.69 10.34 0.38 9.68 -2 9 C-2 9.66 -2 10.32 -2 11 C-2.66 10.67 -3.32 10.34 -4 10 C-2.68 6.7 -1.36 3.4 0 0 Z " fill="#76509A" transform="translate(120,342)"/>
<path d="M0 0 C0.66 0 1.32 0 2 0 C2 1.32 2 2.64 2 4 C3.65 4 5.3 4 7 4 C7 2.68 7 1.36 7 0 C7.66 0 8.32 0 9 0 C9 3.63 9 7.26 9 11 C8.34 11 7.68 11 7 11 C7 9.35 7 7.7 7 6 C5.35 6 3.7 6 2 6 C2 7.65 2 9.3 2 11 C1.34 11 0.68 11 0 11 C0 7.37 0 3.74 0 0 Z " fill="#9564BC" transform="translate(171,342)"/>
<path d="M0 0 C0.66 0.33 1.32 0.66 2 1 C-10.21525002 18.58649471 -10.21525002 18.58649471 -18.765625 20.67578125 C-19.50296875 20.78277344 -20.2403125 20.88976562 -21 21 C-12.96363636 12.65454545 -12.96363636 12.65454545 -8 11 C-5.87265067 8.4547046 -5.87265067 8.4547046 -3.8125 5.4375 C-3.09707031 4.42558594 -2.38164062 3.41367188 -1.64453125 2.37109375 C-1.10183594 1.58863281 -0.55914062 0.80617187 0 0 Z " fill="#410A7D" transform="translate(245,217)"/>
<path d="M0 0 C0.96661363 3.12180401 0.98988909 5.52083795 0.5625 8.75 C0.46066406 9.54921875 0.35882813 10.3484375 0.25390625 11.171875 C0.12822266 12.07679688 0.12822266 12.07679688 0 13 C-2.46800047 11.84826645 -4.04783565 10.95216435 -6 9 C-5.88679697 5.71711224 -4.71715137 4.69645513 -2.4375 2.25 C-1.633125 1.5075 -0.82875 0.765 0 0 Z " fill="#4C3CEE" transform="translate(291,177)"/>
<path d="M0 0 C1.670625 0.061875 1.670625 0.061875 3.375 0.125 C3.705 1.115 4.035 2.105 4.375 3.125 C1.735 2.795 -0.905 2.465 -3.625 2.125 C-3.625 4.435 -3.625 6.745 -3.625 9.125 C-0.65434491 8.78272428 -0.65434491 8.78272428 2.375 8.125 C2.705 7.465 3.035 6.805 3.375 6.125 C2.055 5.795 0.735 5.465 -0.625 5.125 C1.355 5.125 3.335 5.125 5.375 5.125 C4.80155063 7.99224686 4.5135485 8.9864515 2.375 11.125 C-0.625 11.4375 -0.625 11.4375 -3.625 11.125 C-5.92663882 7.67254176 -5.96990322 6.17761287 -5.625 2.125 C-3.625 0.125 -3.625 0.125 0 0 Z " fill="#A46FCE" transform="translate(371.625,341.875)"/>
<path d="M0 0 C2.625 0.375 2.625 0.375 5 1 C5.33 2.32 5.66 3.64 6 5 C8.31 5 10.62 5 13 5 C13 5.33 13 5.66 13 6 C11.02 6 9.04 6 7 6 C7 6.66 7 7.32 7 8 C0.35384615 6.52307692 0.35384615 6.52307692 -1.4375 3.875 C-1.623125 3.25625 -1.80875 2.6375 -2 2 C-1.34 1.34 -0.68 0.68 0 0 Z " fill="#343148" transform="translate(373,300)"/>
<path d="M0 0 C0.99 0.33 1.98 0.66 3 1 C2.36720612 4.12881416 1.30288588 6.47746008 -0.375 9.1875 C-0.79523438 9.88230469 -1.21546875 10.57710937 -1.6484375 11.29296875 C-3 13 -3 13 -6 14 C-5.41892368 10.2397015 -4.34800504 7.46964968 -2.4375 4.1875 C-1.98246094 3.39730469 -1.52742187 2.60710937 -1.05859375 1.79296875 C-0.53458984 0.90544922 -0.53458984 0.90544922 0 0 Z " fill="#D802D4" transform="translate(254,197)"/>
<path d="M0 0 C0.66 0 1.32 0 2 0 C3.38938077 1.96147874 4.7260411 3.96166576 6 6 C6.33 4.02 6.66 2.04 7 0 C7.66 0 8.32 0 9 0 C9 3.63 9 7.26 9 11 C5.00003714 9.66667905 4.16217663 7.5042173 2 4 C1.67 6.31 1.34 8.62 1 11 C0.67 11 0.34 11 0 11 C0 7.37 0 3.74 0 0 Z " fill="#A46FCD" transform="translate(348,342)"/>
<path d="M0 0 C-0.99 0.495 -0.99 0.495 -2 1 C-2.40729228 3.32156597 -2.74438677 5.6568787 -3 8 C-2.01 8.66 -1.02 9.32 0 10 C-2.31 10.33 -4.62 10.66 -7 11 C-6.93489583 8.98177083 -6.86979167 6.96354167 -6.8046875 4.9453125 C-6.81668311 2.76136355 -6.81668311 2.76136355 -9 1 C-5.57367167 -0.61798838 -3.61944899 -1.34053666 0 0 Z " fill="#C82FE2" transform="translate(315,165)"/>
<path d="M0 0 C0 0.33 0 0.66 0 1 C-2.64 1 -5.28 1 -8 1 C-8 1.66 -8 2.32 -8 3 C-13.61 3 -19.22 3 -25 3 C-18.0226753 -1.6515498 -8.06407179 -0.10193349 0 0 Z " fill="#5C28EB" transform="translate(218,145)"/>
<path d="M0 0 C1.4540625 0.0309375 1.4540625 0.0309375 2.9375 0.0625 C2.9375 1.0525 2.9375 2.0425 2.9375 3.0625 C1.6175 2.7325 0.2975 2.4025 -1.0625 2.0625 C-1.3925 2.7225 -1.7225 3.3825 -2.0625 4.0625 C-0.0825 4.7225 1.8975 5.3825 3.9375 6.0625 C3.9375 7.3825 3.9375 8.7025 3.9375 10.0625 C2.9375 11.0625 2.9375 11.0625 0.5 11.3125 C-0.345625 11.23 -1.19125 11.1475 -2.0625 11.0625 C-2.7225 10.0725 -3.3825 9.0825 -4.0625 8.0625 C-1.0925 8.5575 -1.0925 8.5575 1.9375 9.0625 C2.2675 8.4025 2.5975 7.7425 2.9375 7.0625 C1.968125 6.815 0.99875 6.5675 0 6.3125 C-3.0625 5.0625 -3.0625 5.0625 -4 3 C-4.020625 2.360625 -4.04125 1.72125 -4.0625 1.0625 C-3.0625 0.0625 -3.0625 0.0625 0 0 Z " fill="#A670CF" transform="translate(138.0625,341.9375)"/>
<path d="M0 0 C1.32 0 2.64 0 4 0 C5.29534145 4.85753045 5.49915868 10.0084132 5 15 C4.01 16.485 4.01 16.485 3 18 C2.34 17.34 1.68 16.68 1 16 C1.33 15.34 1.66 14.68 2 14 C2.26186347 8.7627306 1.97513861 4.93784652 0 0 Z " fill="#F559E7" transform="translate(335,182)"/>
<path d="M0 0 C0.89342586 2.99399964 1.09138998 5.45261356 0.8125 8.5625 C0.75707031 9.32691406 0.70164062 10.09132812 0.64453125 10.87890625 C-0.20253766 13.66653302 -1.58164578 14.48307641 -4 16 C-3.91621094 15.32453125 -3.83242188 14.6490625 -3.74609375 13.953125 C-3.64425781 13.06109375 -3.54242188 12.1690625 -3.4375 11.25 C-3.33308594 10.36828125 -3.22867187 9.4865625 -3.12109375 8.578125 C-3.00543324 6.11567549 -3.26361305 4.33461936 -4 2 C-2.68 1.34 -1.36 0.68 0 0 Z " fill="#9337E8" transform="translate(303,168)"/>
<path d="M0 0 C0.66 0 1.32 0 2 0 C2 1.65 2 3.3 2 5 C3.98 5 5.96 5 8 5 C8 3.35 8 1.7 8 0 C8.33 0 8.66 0 9 0 C9 3.63 9 7.26 9 11 C8.67 11 8.34 11 8 11 C8 9.35 8 7.7 8 6 C6.02 6 4.04 6 2 6 C2 7.65 2 9.3 2 11 C1.34 11 0.68 11 0 11 C0 7.37 0 3.74 0 0 Z " fill="#A871D2" transform="translate(253,342)"/>
<path d="M0 0 C2.86724686 0.57344937 3.8614515 0.8614515 6 3 C6.125 5.625 6.125 5.625 6 8 C3.36 7.01 0.72 6.02 -2 5 C-1.34 3.35 -0.68 1.7 0 0 Z " fill="#110C7B" transform="translate(260,199)"/>
<path d="M0 0 C3.32851213 2.98418329 5.3205729 5.84562769 7 10 C6.67 10.99 6.34 11.98 6 13 C5.67386719 12.51789063 5.34773438 12.03578125 5.01171875 11.5390625 C4.35623047 10.59160156 4.35623047 10.59160156 3.6875 9.625 C3.25824219 8.99851563 2.82898438 8.37203125 2.38671875 7.7265625 C0.93079661 5.73621155 0.93079661 5.73621155 -2 4 C-1.34 2.68 -0.68 1.36 0 0 Z " fill="#AB33E6" transform="translate(346,176)"/>
<path d="M0 0 C0.66 0.66 1.32 1.32 2 2 C1.41992188 2.80050781 1.41992188 2.80050781 0.828125 3.6171875 C-3.04394656 9.15693345 -5.74170838 14.63693125 -8 21 C-9.50570723 16.65887007 -8.14728132 14.37827145 -6.2578125 10.39453125 C-4.36915248 6.79903872 -2.24760263 3.38061543 0 0 Z " fill="#6C64E2" transform="translate(160,171)"/>
<path d="M0 0 C2.52113092 -0.05447822 5.0410585 -0.09389852 7.5625 -0.125 C8.26697266 -0.14175781 8.97144531 -0.15851563 9.69726562 -0.17578125 C14.51891822 -0.22022044 18.42297438 0.47231996 23 2 C23 2.33 23 2.66 23 3 C15.22550376 3.31732638 7.67007765 2.11855299 0 1 C0 0.67 0 0.34 0 0 Z " fill="#9B72EE" transform="translate(200,151)"/>
<path d="M0 0 C1.62566606 0.47690204 3.25051311 0.95659666 4.875 1.4375 C5.77992188 1.70433594 6.68484375 1.97117188 7.6171875 2.24609375 C10 3 10 3 12 4 C12 4.66 12 5.32 12 6 C10.39431334 5.71682074 8.79047953 5.42312209 7.1875 5.125 C6.29417969 4.96257812 5.40085938 4.80015625 4.48046875 4.6328125 C2 4 2 4 -1 2 C-0.67 1.34 -0.34 0.68 0 0 Z " fill="#8415E7" transform="translate(221,150)"/>
<path d="M0 0 C0.66 0.33 1.32 0.66 2 1 C-0.87168237 4.2971168 -2.63051174 5.60277379 -7 6 C-9.67289178 6.06470688 -12.32516267 6.04533623 -15 6 C-15 5.67 -15 5.34 -15 5 C-13.87851563 4.70996094 -13.87851563 4.70996094 -12.734375 4.4140625 C-11.74953125 4.15367187 -10.7646875 3.89328125 -9.75 3.625 C-8.77546875 3.36976563 -7.8009375 3.11453125 -6.796875 2.8515625 C-4.03044689 2.10283347 -4.03044689 2.10283347 -1.765625 0.8359375 C-1.18296875 0.56007812 -0.6003125 0.28421875 0 0 Z " fill="#120ED7" transform="translate(228,242)"/>
<path d="M0 0 C1.9451 2.91765 2.45276317 4.62537285 3 8 C2.34 8 1.68 8 1 8 C1.33 10.31 1.66 12.62 2 15 C-0.95183101 12.04816899 -1.08663988 9.04488053 -2 5 C-1.67 5 -1.34 5 -1 5 C-0.67 3.35 -0.34 1.7 0 0 Z " fill="#0A0D97" transform="translate(163,212)"/>
<path d="M0 0 C-0.33 0.66 -0.66 1.32 -1 2 C-3.72265625 2.8515625 -3.72265625 2.8515625 -7.0625 3.625 C-8.16722656 3.88539063 -9.27195313 4.14578125 -10.41015625 4.4140625 C-11.26480469 4.60742188 -12.11945313 4.80078125 -13 5 C-12.67 4.01 -12.34 3.02 -12 2 C-7.9083139 0.19204568 -4.44280672 -0.21156222 0 0 Z " fill="#5F08CE" transform="translate(206,176)"/>
<path d="M0 0 C0 0.66 0 1.32 0 2 C-5.36439644 4.68219822 -9.01006953 5.3152595 -15 5 C-12.18178397 3.12118931 -10.14357281 2.30990783 -6.9375 1.375 C-6.05964844 1.11460937 -5.18179688 0.85421875 -4.27734375 0.5859375 C-2 0 -2 0 0 0 Z " fill="#8563F0" transform="translate(233,244)"/>
<path d="M0 0 C-4.52648522 2.64964989 -7.75398486 3.50442453 -13 3 C-13.66 2.34 -14.32 1.68 -15 1 C-13.25215171 0.63536268 -11.50159498 0.2836922 -9.75 -0.0625 C-8.28820312 -0.35833984 -8.28820312 -0.35833984 -6.796875 -0.66015625 C-4.131881 -0.98397535 -2.51128277 -0.85503199 0 0 Z " fill="#7107A7" transform="translate(340,234)"/>
<path d="M0 0 C1.93816735 0.1141866 3.87555099 0.24173423 5.8125 0.375 C6.89144531 0.44460937 7.97039062 0.51421875 9.08203125 0.5859375 C12 1 12 1 15 3 C10.71 3 6.42 3 2 3 C2 2.34 2 1.68 2 1 C1.34 0.67 0.68 0.34 0 0 Z " fill="#440991" transform="translate(315,235)"/>
<path d="M0 0 C0.33 0.99 0.66 1.98 1 3 C-0.0828125 3.5878125 -0.0828125 3.5878125 -1.1875 4.1875 C-4.22801329 6.1469419 -6.48374365 8.41573672 -9 11 C-9.99 11.495 -9.99 11.495 -11 12 C-9.49650623 8.33213607 -7.36271208 6.31089607 -4.375 3.75 C-3.14910156 2.69039062 -3.14910156 2.69039062 -1.8984375 1.609375 C-1.27195313 1.07828125 -0.64546875 0.5471875 0 0 Z " fill="#2B0BC1" transform="translate(192,179)"/>
<path d="M0 0 C2.875 2.5625 2.875 2.5625 5 5 C3.39402675 4.54803755 1.79027492 4.08817673 0.1875 3.625 C-0.70582031 3.36976563 -1.59914063 3.11453125 -2.51953125 2.8515625 C-5 2 -5 2 -8 0 C-4.99054157 -1.50472922 -3.20590237 -0.88005163 0 0 Z " fill="#240BE3" transform="translate(338,154)"/>
<path d="M0 0 C0 3.77910478 -0.99703962 4.46106101 -3.5 7.1875 C-4.1496875 7.90292969 -4.799375 8.61835938 -5.46875 9.35546875 C-5.9740625 9.89816406 -6.479375 10.44085938 -7 11 C-7.33 10.34 -7.66 9.68 -8 9 C-8.66 8.67 -9.32 8.34 -10 8 C-8.906875 7.4225 -7.81375 6.845 -6.6875 6.25 C-3.70330868 4.55855553 -1.81055186 2.98208542 0 0 Z " fill="#A005AC" transform="translate(350,221)"/>
<path d="M0 0 C0.33 0 0.66 0 1 0 C0.95875 0.9075 0.9175 1.815 0.875 2.75 C0.99531556 5.8782046 1.3914708 7.38614006 3 10 C1.02 10.99 1.02 10.99 -1 12 C-2.36884358 7.48281619 -1.47075246 4.41225737 0 0 Z " fill="#A436E7" transform="translate(304,168)"/>
<path d="M0 0 C0.66 0.33 1.32 0.66 2 1 C-1.63 4.63 -5.26 8.26 -9 12 C-9 9 -9 9 -6.75 6.5625 C-5.8425 5.716875 -4.935 4.87125 -4 4 C-3.236875 3.236875 -2.47375 2.47375 -1.6875 1.6875 C-1.130625 1.130625 -0.57375 0.57375 0 0 Z " fill="#4331EA" transform="translate(161,165)"/>
<path d="M0 0 C0 0.33 0 0.66 0 1 C-1.98 1 -3.96 1 -6 1 C-6 1.66 -6 2.32 -6 3 C-8.64 3.33 -11.28 3.66 -14 4 C-12 1 -12 1 -10.375 0.3125 C-6.900172 -0.14471421 -3.50413832 -0.05840231 0 0 Z " fill="#2E0BD1" transform="translate(206,143)"/>
<path d="M0 0 C2.31 0.33 4.62 0.66 7 1 C7.33 2.32 7.66 3.64 8 5 C5.36 4.34 2.72 3.68 0 3 C0 3.66 0 4.32 0 5 C-0.66 4.67 -1.32 4.34 -2 4 C-1.34 2.68 -0.68 1.36 0 0 Z " fill="#9B69C4" transform="translate(190,348)"/>
<path d="M0 0 C2.31 0.33 4.62 0.66 7 1 C7.33 2.32 7.66 3.64 8 5 C5.36 4.34 2.72 3.68 0 3 C0 3.66 0 4.32 0 5 C-0.66 4.67 -1.32 4.34 -2 4 C-1.34 2.68 -0.68 1.36 0 0 Z " fill="#9B69C4" transform="translate(118,348)"/>
<path d="M0 0 C2.63664741 2.63664741 4.255224 4.75970171 6 8 C6 8.66 6 9.32 6 10 C4.68 9.67 3.36 9.34 2 9 C1.34 6.03 0.68 3.06 0 0 Z " fill="#2C14DE" transform="translate(151,219)"/>
<path d="M0 0 C0.66 0.33 1.32 0.66 2 1 C-2.30769231 6.84615385 -2.30769231 6.84615385 -6 8 C-8.25 7.625 -8.25 7.625 -10 7 C-9.0925 6.5875 -8.185 6.175 -7.25 5.75 C-4.20334382 4.10949282 -2.28873194 2.55281639 0 0 Z " fill="#FC73EE" transform="translate(336,199)"/>
<path d="M0 0 C0.66 0 1.32 0 2 0 C1.67 2.64 1.34 5.28 1 8 C0.01 8 -0.98 8 -2 8 C-1.125 1.125 -1.125 1.125 0 0 Z " fill="#E134E9" transform="translate(313,165)"/>
<path d="M0 0 C0.66 0.66 1.32 1.32 2 2 C-0.64 4.31 -3.28 6.62 -6 9 C-6 6 -6 6 -4.6875 4.39453125 C-4.130625 3.87246094 -3.57375 3.35039062 -3 2.8125 C-2.443125 2.28269531 -1.88625 1.75289062 -1.3125 1.20703125 C-0.6628125 0.60955078 -0.6628125 0.60955078 0 0 Z " fill="#090EE5" transform="translate(162,162)"/>
<path d="M0 0 C1.98 0 3.96 0 6 0 C6 0.99 6 1.98 6 3 C4.68 2.67 3.36 2.34 2 2 C1.67 2.66 1.34 3.32 1 4 C1.66 4 2.32 4 3 4 C3 4.66 3 5.32 3 6 C1.68 5.34 0.36 4.68 -1 4 C-0.67 2.68 -0.34 1.36 0 0 Z " fill="#9F6BC8" transform="translate(135,342)"/>
<path d="M0 0 C2.97 0.495 2.97 0.495 6 1 C5.34 2.32 4.68 3.64 4 5 C1.525 4.01 1.525 4.01 -1 3 C-0.67 2.01 -0.34 1.02 0 0 Z " fill="#1E1638" transform="translate(137,343)"/>
<path d="M0 0 C0.33 0.66 0.66 1.32 1 2 C-2.3 2 -5.6 2 -9 2 C-6.02491912 -0.97508088 -3.86493532 -1.41714295 0 0 Z " fill="#E52AE7" transform="translate(217,260)"/>
<path d="M0 0 C1.32 0.66 2.64 1.32 4 2 C2.35 3.65 0.7 5.3 -1 7 C-2 4 -2 4 -1.0625 1.8125 C-0.5365625 0.9153125 -0.5365625 0.9153125 0 0 Z " fill="#BC03CB" transform="translate(250,204)"/>
<path d="M0 0 C0.99 0.33 1.98 0.66 3 1 C2.0479279 2.00596297 1.08812654 3.00461563 0.125 4 C-0.40867187 4.556875 -0.94234375 5.11375 -1.4921875 5.6875 C-3 7 -3 7 -5 7 C-3.70700306 4.11562221 -2.34058637 2.12780579 0 0 Z " fill="#1A0C60" transform="translate(278,163)"/>
<path d="M0 0 C2.86724686 0.57344937 3.8614515 0.8614515 6 3 C5.34 3.66 4.68 4.32 4 5 C1.525 4.01 1.525 4.01 -1 3 C-0.67 2.01 -0.34 1.02 0 0 Z " fill="#1C1536" transform="translate(219,343)"/>
<path d="M0 0 C2.31 0 4.62 0 7 0 C7.33 0.99 7.66 1.98 8 3 C5.36 2.67 2.72 2.34 0 2 C0 2.66 0 3.32 0 4 C-0.66 4 -1.32 4 -2 4 C-1.34 2.68 -0.68 1.36 0 0 Z " fill="#9E6BC7" transform="translate(368,342)"/>
<path d="M0 0 C0.66 0.33 1.32 0.66 2 1 C-0.31 3.31 -2.62 5.62 -5 8 C-5.66 7.34 -6.32 6.68 -7 6 C-4.69 4.02 -2.38 2.04 0 0 Z " fill="#230BCE" transform="translate(278,161)"/>
<path d="M0 0 C1.43836751 0.11458693 2.87570966 0.24209116 4.3125 0.375 C5.51326172 0.47941406 5.51326172 0.47941406 6.73828125 0.5859375 C9 1 9 1 12 3 C4.61538462 3.36923077 4.61538462 3.36923077 1.5 1.5 C1.005 1.005 0.51 0.51 0 0 Z " fill="#760BD5" transform="translate(222,145)"/>
<path d="M0 0 C-0.33 0.99 -0.66 1.98 -1 3 C-3.86724686 2.42655063 -4.8614515 2.1385485 -7 0 C-4.3333581 -1.33332095 -2.83319697 -0.67102033 0 0 Z " fill="#251B40" transform="translate(107,349)"/>
<path d="M0 0 C3 1 3 1 6 3 C2.37 3 -1.26 3 -5 3 C-2 1 -2 1 0 0 Z " fill="#B204C9" transform="translate(321,227)"/>
<path d="M0 0 C1.98 0.99 1.98 0.99 4 2 C3.67 3.65 3.34 5.3 3 7 C2.01 6.34 1.02 5.68 0 5 C-0.1875 2.375 -0.1875 2.375 0 0 Z " fill="#600A7B" transform="translate(266,203)"/>
<path d="M0 0 C2.97 0.99 5.94 1.98 9 3 C9 3.66 9 4.32 9 5 C4.89198233 3.81323934 3.10551666 3.10551666 0 0 Z " fill="#EA08DF" transform="translate(302,210)"/>
<path d="M0 0 C3.60924648 0.34928192 4.27112248 1.27112248 7 4 C2.545 3.01 2.545 3.01 -2 2 C-1.34 1.34 -0.68 0.68 0 0 Z " fill="#C003C4" transform="translate(223,180)"/>
</svg>
